<svg
  width="358"
  height="57"
  viewBox="0 0 358 57"
  fill="none"
  xmlns="http://www.w3.org/2000/svg"
>
<g clip-path="url(#clip0_223_28344)">
<path
      d="M31.3412 16.8788L31.0895 16.3744L13.9353 0.313721L12.6107 0.59246L0 30.1123L0.0927255 30.9219L17.9093 54.9333L19.0352 55.1059L33.9243 44.3943L34.2555 43.651L31.3412 16.8788ZM12.9551 28.8247L2.01347 29.515L12.6107 4.72045L12.9551 28.8247ZM12.9551 30.4441L12.8491 45.4429L2.25191 31.2139L12.9551 30.4441ZM14.2797 4.3488L23.7112 23.0907L14.5712 28.254L14.2797 4.3488ZM14.5712 30.1123L24.3868 24.564L32.3347 43.1466L14.4652 46.7702L14.5712 30.1123ZM32.0565 38.3815L25.5393 23.0907V23.0243L16.2667 4.64081L29.8444 17.3433L32.0565 38.3815ZM18.7306 53.314L15.0613 48.363L29.8841 45.3102L18.7306 53.314Z"
      fill="url(#paint0_linear_223_28344)"
    />
<path
      d="M60.6028 45.0978V11.2907H64.6562V41.8193H80.3666V45.058L60.6028 45.0978Z"
      fill="#101010"
    />
<path
      d="M87.9171 15.8302C87.547 15.8412 87.1787 15.7763 86.8346 15.6395C86.4905 15.5026 86.178 15.2967 85.9162 15.0344C85.6544 14.7721 85.449 14.459 85.3124 14.1142C85.1758 13.7694 85.1111 13.4003 85.122 13.0295C85.1164 12.6694 85.1839 12.3118 85.3206 11.9787C85.4572 11.6455 85.6601 11.3437 85.9168 11.0916C86.4606 10.5964 87.169 10.3219 87.9038 10.3219C88.6386 10.3219 89.3471 10.5964 89.8908 11.0916C90.1569 11.3379 90.3677 11.638 90.5093 11.9721C90.6509 12.3062 90.72 12.6666 90.7121 13.0295C90.7235 13.4027 90.6563 13.7741 90.5148 14.1194C90.3733 14.4648 90.1606 14.7764 89.8908 15.0338C89.6318 15.2922 89.3236 15.4959 88.9846 15.6327C88.6455 15.7695 88.2825 15.8367 87.9171 15.8302ZM85.8903 45.0978V21.1395H89.9438V45.0978H85.8903Z"
      fill="#101010"
    />
<path
      d="M106.634 37.5586C105.378 37.5742 104.127 37.3951 102.925 37.0276L100.514 39.3106C100.924 39.5875 101.37 39.8064 101.839 39.961C102.589 40.1804 103.356 40.3401 104.131 40.4389C105.124 40.5849 106.528 40.7442 108.33 40.9034C111.536 41.1291 113.84 41.8591 115.218 43.1201C115.908 43.7461 116.452 44.5166 116.811 45.3768C117.17 46.2369 117.337 47.1658 117.298 48.0976C117.294 49.5051 116.9 50.884 116.159 52.0795C115.312 53.4145 114.11 54.4857 112.688 55.1722C110.809 56.0387 108.754 56.4524 106.687 56.3801C104.742 56.4079 102.805 56.1211 100.952 55.5306C99.4332 55.0647 98.0781 54.1763 97.0439 52.9688C96.0863 51.7355 95.5938 50.2032 95.653 48.6418C95.6798 47.6283 95.9238 46.6324 96.3683 45.7216C96.9827 44.5196 97.8949 43.4958 99.0176 42.7484C98.3851 42.4998 97.7812 42.1839 97.2161 41.806C96.7384 41.4747 96.2947 41.0968 95.8914 40.6778V39.5628L99.9846 35.5012C99.0582 34.7257 98.3202 33.7489 97.8268 32.645C97.3333 31.541 97.0973 30.339 97.1366 29.13C97.1176 27.6227 97.5018 26.1377 98.2493 24.8295C99.0133 23.5198 100.135 22.4561 101.481 21.7633C103.079 20.9637 104.849 20.5716 106.634 20.6218C107.912 20.6069 109.183 20.8043 110.396 21.2059H119.219V24.2056L114.741 24.4047C115.653 25.793 116.115 27.4291 116.066 29.0902C116.087 30.5995 115.697 32.0861 114.94 33.3907C114.166 34.6923 113.047 35.7536 111.708 36.4569C110.132 37.2352 108.39 37.6135 106.634 37.5586ZM99.6004 48.1772C99.567 48.907 99.7394 49.6315 100.098 50.2676C100.456 50.9038 100.986 51.4259 101.627 51.7743C103.178 52.6157 104.925 53.0237 106.687 52.9556C108.386 53.0387 110.067 52.5735 111.483 51.6282C112.053 51.2485 112.518 50.7307 112.835 50.1228C113.152 49.5148 113.311 48.8365 113.297 48.1506C113.284 47.638 113.158 47.1345 112.929 46.6758C112.7 46.2172 112.374 45.8144 111.973 45.496C110.611 44.5743 108.992 44.1096 107.35 44.1687C105.575 44.0359 104.051 43.8766 102.766 43.6908C101.672 44.1703 100.748 44.9709 100.117 45.9871C99.7787 46.6722 99.602 47.4261 99.6004 48.1905V48.1772ZM106.634 34.227C108.111 34.3059 109.565 33.8329 110.714 32.8996C111.235 32.4127 111.642 31.8162 111.905 31.1529C112.169 30.4896 112.282 29.7761 112.238 29.0637C112.279 28.3575 112.164 27.6508 111.901 26.9945C111.637 26.3381 111.232 25.7483 110.714 25.2675C109.562 24.3398 108.111 23.8675 106.634 23.9402C105.145 23.8639 103.68 24.336 102.515 25.2675C101.999 25.7496 101.597 26.3399 101.335 26.9962C101.074 27.6525 100.961 28.3585 101.005 29.0637C100.957 29.7752 101.068 30.4883 101.329 31.1517C101.591 31.8151 101.995 32.4121 102.515 32.8996C103.677 33.8367 105.145 34.3095 106.634 34.227Z"
      fill="#101010"
    />
<path
      d="M124.212 45.0978V10.3218H128.186V25.241C128.974 23.7834 130.166 22.5849 131.617 21.7899C133.091 20.9674 134.752 20.5421 136.439 20.5555C137.662 20.5046 138.881 20.7083 140.021 21.1538C141.161 21.5993 142.197 22.2769 143.062 23.1438C144.731 24.8693 145.566 27.524 145.566 31.1077V45.0978H141.592V31.5325C141.592 26.5417 139.578 24.0331 135.565 24.0331C134.572 24.0083 133.585 24.1969 132.671 24.5861C131.757 24.9753 130.937 25.5562 130.266 26.2895C128.757 28.065 127.996 30.3597 128.147 32.6873V45.0978H124.212Z"
      fill="#101010"
    />
<path
      d="M161.197 45.0978C159.344 45.2033 157.515 44.638 156.044 43.505C154.719 42.4431 154.163 40.5318 154.163 37.7577V24.5773H150.017V21.1395H154.163L154.693 15.3922H158.216V21.1395H165.25V24.5773H158.216V37.7577C158.149 38.3043 158.195 38.859 158.352 39.3868C158.51 39.9145 158.774 40.4039 159.13 40.8238C160.085 41.4528 161.226 41.734 162.362 41.6202H164.866V45.0978H161.197Z"
      fill="#101010"
    />
<path
      d="M177.424 45.1509L168.23 11.2907H172.575L179.848 40.3194L188.1 11.2907H192.591L200.645 40.3194L207.97 11.2907H212.315L202.87 45.0978H198.234L190.18 17.2239L181.941 45.0978L177.424 45.1509Z"
      fill="#101010"
    />
<path
      d="M226.224 45.6818C224.097 45.7176 222.001 45.1764 220.157 44.1156C218.387 43.0725 216.942 41.5557 215.984 39.7354C214.921 37.6892 214.397 35.4048 214.461 33.0987C214.403 30.7964 214.918 28.5159 215.958 26.4621C216.903 24.6298 218.351 23.1057 220.13 22.0686C222.011 20.9884 224.149 20.4424 226.316 20.4891C228.426 20.4349 230.507 20.9827 232.317 22.0686C233.96 23.0666 235.302 24.4935 236.198 26.1966C237.086 27.8952 237.542 29.7875 237.523 31.705C237.523 32.0502 237.523 32.4085 237.523 32.7669C237.523 33.1253 237.523 33.5235 237.523 33.9748H218.461C218.505 35.5854 218.961 37.1577 219.786 38.5408C220.482 39.6596 221.46 40.5751 222.621 41.1954C223.739 41.8047 224.991 42.1241 226.263 42.1246C227.749 42.1728 229.214 41.7653 230.463 40.9565C231.58 40.1882 232.435 39.0948 232.913 37.824H236.887C236.256 40.1245 234.864 42.1419 232.938 43.5455C231.013 44.949 228.669 45.6555 226.29 45.5491L226.224 45.6818ZM226.224 23.9933C224.359 23.9707 222.543 24.5943 221.084 25.7586C220.338 26.3871 219.73 27.1629 219.297 28.0376C218.864 28.9123 218.615 29.8671 218.567 30.8423H233.602C233.605 29.8896 233.409 28.9467 233.029 28.0737C232.648 27.2008 232.09 26.4169 231.39 25.7719C229.954 24.5468 228.108 23.9114 226.224 23.9933Z"
      fill="#101010"
    />
<path
      d="M251.22 45.6818C249.511 45.7401 247.813 45.3897 246.266 44.6598C245.041 44.0917 244.016 43.1665 243.325 42.0051C242.681 40.8881 242.347 39.6185 242.358 38.3284C242.308 37.2259 242.538 36.1287 243.027 35.1397C243.516 34.1507 244.247 33.3022 245.153 32.674C247.428 31.2435 250.088 30.5527 252.77 30.6963H259.234V30.4043C259.294 29.5422 259.179 28.6768 258.897 27.8602C258.615 27.0436 258.171 26.2927 257.592 25.6524C257.008 25.0999 256.318 24.6715 255.565 24.3932C254.811 24.1149 254.009 23.9924 253.207 24.0331C251.758 23.9971 250.333 24.4096 249.127 25.2144C248.555 25.6147 248.071 26.1269 247.702 26.72C247.333 27.3131 247.088 27.9749 246.981 28.6655H242.835C242.935 27.0292 243.552 25.4673 244.597 24.2056C245.632 23.0331 246.931 22.1233 248.385 21.551C249.915 20.9208 251.553 20.6005 253.207 20.6086C254.578 20.5034 255.956 20.6851 257.254 21.1421C258.552 21.5991 259.74 22.3214 260.744 23.2632C262.493 25.2115 263.403 27.7736 263.274 30.391V45.1243H259.631L259.393 40.8238C258.7 42.2033 257.681 43.3925 256.426 44.2881C254.88 45.2903 253.058 45.7781 251.22 45.6818ZM251.856 42.2573C253.275 42.292 254.669 41.8685 255.83 41.0494C256.916 40.2361 257.77 39.1514 258.307 37.9037C258.887 36.6288 259.185 35.2433 259.181 33.842H253.048C251.282 33.6807 249.511 34.1101 248.014 35.0632C247.549 35.4286 247.175 35.8965 246.92 36.4306C246.665 36.9647 246.536 37.5506 246.544 38.1426C246.52 38.7129 246.627 39.2811 246.857 39.8035C247.086 40.3259 247.432 40.7885 247.869 41.1556C249.022 41.9912 250.438 42.3823 251.856 42.2573Z"
      fill="#101010"
    />
<path
      d="M275.859 45.0978L266.785 21.1395H271.037L278.177 41.1822L285.409 21.1395H289.555L280.495 45.0978H275.859Z"
      fill="#101010"
    />
<path
      d="M304.233 45.6818C302.106 45.7176 300.01 45.1764 298.166 44.1156C296.395 43.0725 294.951 41.5557 293.993 39.7354C292.93 37.6892 292.405 35.4048 292.47 33.0987C292.412 30.7964 292.926 28.5159 293.966 26.4621C294.912 24.6298 296.36 23.1057 298.139 22.0686C300.02 20.9884 302.158 20.4424 304.325 20.4891C306.434 20.4349 308.516 20.9827 310.326 22.0686C311.969 23.0666 313.311 24.4935 314.207 26.1966C315.095 27.8952 315.55 29.7875 315.532 31.705C315.532 32.0502 315.532 32.4085 315.532 32.7669C315.532 33.1253 315.532 33.5235 315.532 33.9748H296.47C296.514 35.5854 296.97 37.1577 297.795 38.5408C298.491 39.6596 299.468 40.5751 300.629 41.1954C301.747 41.8047 303 42.1241 304.272 42.1246C305.758 42.1728 307.223 41.7653 308.471 40.9565C309.589 40.1882 310.444 39.0948 310.922 37.824H314.896C314.265 40.1245 312.872 42.1419 310.947 43.5455C309.022 44.949 306.677 45.6555 304.299 45.5491L304.233 45.6818ZM304.233 23.9933C302.367 23.9707 300.552 24.5943 299.093 25.7586C298.337 26.3822 297.719 27.1559 297.277 28.0308C296.834 28.9058 296.578 29.863 296.523 30.8423H311.558C311.561 29.8896 311.365 28.9467 310.984 28.0737C310.604 27.2008 310.045 26.4169 309.346 25.7719C307.923 24.5595 306.099 23.9249 304.233 23.9933Z"
      fill="#101010"
    />
<path
      d="M321.572 45.0978V21.1395H325.228L325.572 25.7321C326.299 24.1669 327.475 22.8545 328.95 21.9625C330.646 20.9791 332.582 20.4916 334.54 20.5555V24.8162H333.428C332.067 24.7947 330.715 25.0475 329.454 25.5595C328.255 26.067 327.258 26.9587 326.619 28.0947C325.829 29.6108 325.459 31.3111 325.546 33.0191V45.0978H321.572Z"
      fill="#101010"
    />
<path
      d="M345.734 20.5555V13.9188H343.495V12.9897H349.098V13.9188H346.873V20.5555H345.734Z"
      fill="#101010"
    />
<path
      d="M350.185 20.5555V12.9897H351.509L354.079 18.0336L356.622 12.9897H357.947V20.5555H356.795V14.9143L354.49 19.4273H353.682L351.364 14.9276V20.5024L350.185 20.5555Z"
      fill="#101010"
    />
</g>
<defs>
<linearGradient
      id="paint0_linear_223_28344"
      x1="4.39784"
      y1="41.4078"
      x2="30.2939"
      y2="15.5772"
      gradientUnits="userSpaceOnUse"
    >
<stop stopColor="#F47521" />
<stop offset="1" stopColor="#FDB71C" />
</linearGradient>
<clipPath id="clip0_223_28344">
<rect width="358" height="56" fill="white" transform="translate(0 0.313721)" />
</clipPath>
</defs>
</svg>
