<?xml version="1.0" encoding="UTF-8" standalone="no"?>
<!DOCTYPE svg PUBLIC "-//W3C//DTD SVG 1.1//EN" "http://www.w3.org/Graphics/SVG/1.1/DTD/svg11.dtd">
<svg width="100%" height="100%" viewBox="0 0 65 78" version="1.1" xmlns="http://www.w3.org/2000/svg" xmlns:xlink="http://www.w3.org/1999/xlink" xml:space="preserve" xmlns:serif="http://www.serif.com/" style="fill-rule:evenodd;clip-rule:evenodd;stroke-linejoin:round;stroke-miterlimit:2;">
    <g transform="matrix(1,0,0,1,-15.9297,-10.7322)">
        <g opacity="0.8">
            <path d="M48.588,10.732L80.263,53.432L68.865,87.298L28.012,88.381L15.93,51.057L48.588,10.732Z" style="fill:url(#_Linear1);fill-rule:nonzero;"/>
        </g>
    </g>
    <g transform="matrix(1,0,0,1,-15.9297,-10.7322)">
        <g opacity="0.8">
            <path d="M48.294,34.7L64.13,56.048L58.432,72.981L38.006,73.522L31.966,54.861L48.294,34.7Z" style="fill:white;fill-rule:nonzero;"/>
        </g>
    </g>
    <g transform="matrix(1,0,0,1,-15.9297,-10.7322)">
        <g opacity="0.8">
            <path d="M48.647,46.183L56.565,56.857L53.716,65.323L43.503,65.593L40.483,56.263L48.647,46.183Z" style="fill:rgb(255,184,28);fill-rule:nonzero;"/>
        </g>
    </g>
    <defs>
        <linearGradient id="_Linear1" x1="0" y1="0" x2="1" y2="0" gradientUnits="userSpaceOnUse" gradientTransform="matrix(97.4415,-14.493,14.493,97.4415,2.62453,72.9565)"><stop offset="0" style="stopColor:rgb(255,184,28);stop-opacity:1"/><stop offset="1" style="stopColor:rgb(255,117,0);stop-opacity:1"/></linearGradient>
    </defs>
</svg>
